# This file uses centimeters as units for non-parametric coordinates.

mtllib column.mtl
g default
v -89.916321 -296.942200 -470.901978
v -93.459747 -296.942200 -479.456573
v -102.014343 -296.942200 -483.000000
v 102.014343 -296.942200 -483.000000
v 93.459747 -296.942200 -479.456573
v 89.916321 -296.942200 -470.901978
v -77.818298 -296.942200 -362.007690
v -86.372894 -296.942200 -365.551117
v -89.916321 -296.942200 -374.105713
v 89.916321 -296.942200 -374.105713
v 86.372894 -296.942200 -365.551117
v 77.818298 -296.942200 -362.007690
v 102.014343 0.000000 -483.000000
v 93.459747 0.000000 -479.456573
v 89.916321 0.000000 -470.901978
v 89.916321 0.000000 -374.105713
v 86.372894 0.000000 -365.551117
v 77.818298 0.000000 -362.007690
v -77.818298 0.000000 -362.007690
v -86.372894 0.000000 -365.551117
v -89.916321 0.000000 -374.105713
v -89.916321 0.000000 -470.901978
v -93.459747 0.000000 -479.456573
v -102.014343 0.000000 -483.000000
v -89.916321 296.942200 -470.901978
v -93.459747 296.942200 -479.456573
v -102.014343 296.942200 -483.000000
v 102.014343 296.942200 -483.000000
v 93.459747 296.942200 -479.456573
v 89.916321 296.942200 -470.901978
v -77.818298 296.942200 -362.007690
v -86.372894 296.942200 -365.551117
v -89.916321 296.942200 -374.105713
v 89.916321 296.942200 -374.105713
v 86.372894 296.942200 -365.551117
v 77.818298 296.942200 -362.007690
vt 0.474540 0.500000
vt 0.312201 0.500000
vt 0.312201 0.001992
vt 0.474540 0.001992
vt 0.474540 0.998008
vt 0.312201 0.998008
vt 0.297854 0.500000
vt 0.297854 0.001992
vt 0.488888 0.500000
vt 0.488888 0.001992
vt 0.488888 0.998008
vt 0.297854 0.998008
vt 0.672615 0.001992
vt 0.672615 0.500000
vt 0.510276 0.500000
vt 0.510276 0.001992
vt 0.686962 0.500000
vt 0.686962 0.001992
vt 0.672615 0.998008
vt 0.510276 0.998008
vt 0.495929 0.001992
vt 0.495929 0.500000
vt 0.686962 0.998008
vt 0.495929 0.998008
vt 0.276825 0.500000
vt 0.015804 0.500000
vt 0.015804 0.001992
vt 0.276825 0.001992
vt 0.276825 0.998008
vt 0.015804 0.998008
vt 0.001457 0.500000
vt 0.001457 0.001992
vt 0.291172 0.001992
vt 0.291172 0.500000
vt 0.291172 0.998008
vt 0.001457 0.998008
vt 0.708350 0.500000
vt 0.694003 0.500000
vt 0.694003 0.001992
vt 0.708350 0.001992
vt 0.708350 0.998008
vt 0.694003 0.998008
vt 0.729764 0.500000
vt 0.715417 0.500000
vt 0.715417 0.001992
vt 0.729764 0.001992
vt 0.729764 0.998008
vt 0.715417 0.998008
vn 0.021576 0.000000 0.999767
vn -0.021576 0.000000 0.999767
vn -0.021576 0.000000 0.999767
vn 0.021576 0.000000 0.999767
vn -0.999435 0.000000 0.033616
vn -0.999435 0.000000 0.033616
vn -0.999435 0.000000 0.033616
vn -0.999435 0.000000 0.033616
vn 0.999435 0.000000 0.033616
vn 0.999435 0.000000 0.033616
vn 0.999435 0.000000 0.033616
vn 0.999435 0.000000 0.033616
vn -0.923880 0.000000 0.382683
vn -0.923880 0.000000 0.382683
vn -0.382681 0.000000 0.923880
vn -0.382681 0.000000 0.923880
vn -0.382681 0.000000 0.923880
vn -0.382681 0.000000 0.923880
vn 0.382681 0.000000 0.923880
vn 0.382681 0.000000 0.923880
vn 0.382681 0.000000 0.923880
vn 0.382681 0.000000 0.923880
vn 0.923880 0.000000 0.382683
vn 0.923880 0.000000 0.382683
vn -0.382684 0.000000 0.923879
vn -0.382684 0.000000 0.923879
vn -0.923880 0.000000 0.382683
vn -0.923880 0.000000 0.382683
vn 0.382684 0.000000 0.923879
vn 0.382684 0.000000 0.923879
vn 0.923880 0.000000 0.382683
vn 0.923880 0.000000 0.382683
vn 0.021576 0.000000 0.999767
vn -0.021576 0.000000 0.999767
vn -0.999435 0.000000 0.033616
vn -0.999435 0.000000 0.033616
vn 0.999435 0.000000 0.033616
vn 0.999435 0.000000 0.033616
vn -0.923880 0.000000 0.382683
vn -0.382681 0.000000 0.923880
vn -0.382681 0.000000 0.923880
vn 0.382681 0.000000 0.923880
vn 0.382681 0.000000 0.923880
vn 0.923880 0.000000 0.382683
vn -0.382684 0.000000 0.923879
vn -0.923880 0.000000 0.382683
vn 0.382684 0.000000 0.923879
vn 0.923880 0.000000 0.382683
s 1
g pCube4
usemtl initialShadingGroup
f 18/25/1 19/26/2 7/27/3 12/28/4
s 2
f 21/1/5 22/2/6 1/3/7 9/4/8
s 3
f 6/13/9 15/14/10 16/15/11 10/16/12
s 2
f 22/2/6 23/7/13 2/8/14 1/3/7
s 4
f 23/37/15 24/38/16 3/39/17 2/40/18
s 5
f 13/43/19 14/44/20 5/45/21 4/46/22
s 3
f 14/17/23 15/14/10 6/13/9 5/18/24
s 1
f 19/26/2 20/31/25 8/32/26 7/27/3
s 2
f 20/9/27 21/1/5 9/4/8 8/10/28
s 1
f 12/28/4 11/33/29 17/34/30 18/25/1
s 3
f 11/21/31 10/16/12 16/15/11 17/22/32
s 1
f 18/25/1 36/29/33 31/30/34 19/26/2
s 2
f 21/1/5 33/5/35 25/6/36 22/2/6
s 3
f 30/19/37 34/20/38 16/15/11 15/14/10
s 2
f 22/2/6 25/6/36 26/12/39 23/7/13
s 4
f 23/37/15 26/41/40 27/42/41 24/38/16
s 5
f 13/43/19 28/47/42 29/48/43 14/44/20
s 3
f 14/17/23 29/23/44 30/19/37 15/14/10
s 1
f 19/26/2 31/30/34 32/36/45 20/31/25
s 2
f 20/9/27 32/11/46 33/5/35 21/1/5
s 1
f 36/29/33 18/25/1 17/34/30 35/35/47
s 3
f 35/24/48 17/22/32 16/15/11 34/20/38
