# This file uses centimeters as units for non-parametric coordinates.

mtllib corner_up_right.mtl
g default
v 369.389160 268.764404 10.000000
v -476.742676 268.764404 10.000000
v -476.742676 147.706665 -483.000000
v 355.684814 147.706665 -483.000000
v 369.389160 161.468872 10.000000
v 360.684814 153.009155 6.513947
v 355.684814 147.706665 -1.920090
v -476.742676 147.706665 -1.920090
v -476.742676 153.009155 6.513947
v -476.742676 161.468872 10.000000
v 476.742432 161.468872 -483.000000
v 476.742432 268.764404 -483.000000
v 466.008301 161.468872 10.000000
v 473.598389 161.468872 6.856018
v 476.742432 161.468872 -0.734238
v 466.008301 268.764404 10.000000
v 473.598389 268.764404 6.856018
v 476.742432 268.764404 -0.734238
v -476.742676 -268.764404 -483.000000
v 355.684814 -268.764404 -483.000000
v 355.684814 -268.764404 -1.920090
v 360.684814 -268.764404 6.513947
v 369.389160 -268.764404 10.000000
v 466.008301 -268.764404 10.000000
v 473.598389 -268.764404 6.856018
v 476.742432 -268.764404 -0.734238
v 476.742432 -268.764404 -483.000000
vt 0.661848 0.569602
vt 0.661848 0.890243
vt 0.384268 0.890243
vt 0.384268 0.569602
vt 0.665382 0.563981
vt 0.384268 0.563981
vt 0.676576 0.922246
vt 0.676576 0.850733
vt 0.998008 0.850733
vt 0.998008 0.922246
vt 0.671517 0.850733
vt 0.671517 0.922246
vt 0.676576 0.563981
vt 0.998008 0.563981
vt 0.671517 0.563981
vt 0.687283 0.005173
vt 0.687283 0.559989
vt 0.366641 0.559989
vt 0.366641 0.005173
vt 0.692904 0.001841
vt 0.692904 0.559989
vt 0.288744 0.635246
vt 0.288744 0.071297
vt 0.360257 0.071297
vt 0.360257 0.635246
vt 0.283106 0.077098
vt 0.283106 0.635246
vt 0.288744 0.006900
vt 0.360257 0.006900
vt 0.001992 0.077098
vt 0.001992 0.071297
vt 0.001992 0.006900
vt 0.288744 0.001841
vt 0.360257 0.001841
vt 0.001992 0.001841
vt 0.699912 0.556657
vt 0.699912 0.001841
vt 0.977491 0.001841
vt 0.977491 0.556657
vn 0.000000 -0.029959 0.999551
vn -0.005331 -0.010202 0.999934
vn 0.000000 0.000000 1.000000
vn 0.000000 0.000000 1.000000
vn 0.000000 -0.999902 0.014008
vn 0.000000 -0.999941 0.010863
vn 0.000000 -1.000000 0.000000
vn 0.000000 -1.000000 0.000000
vn 0.000000 0.000000 1.000000
vn 0.000000 0.000000 1.000000
vn 0.000000 0.000000 1.000000
vn 0.000000 0.000000 1.000000
vn 0.000000 -0.846587 0.532250
vn 0.000000 -0.846587 0.532250
vn 0.000000 -0.380996 0.924577
vn 0.000000 -0.380996 0.924577
vn -0.371787 0.000000 0.928318
vn -0.371787 0.000000 0.928318
vn -0.032782 0.000000 0.999463
vn -0.860200 0.000000 0.509957
vn -0.860200 0.000000 0.509957
vn -0.860200 0.000000 0.509957
vn -0.860200 0.000000 0.509957
vn -1.000000 0.000000 0.000000
vn -1.000000 0.000000 0.000000
vn -1.000000 0.000000 0.000000
vn -1.000000 0.000000 0.000000
vn 0.030156 0.000000 0.999545
vn 0.030156 0.000000 0.999545
vn 0.030156 0.000000 0.999545
vn 0.999979 0.000000 0.006418
vn 0.999979 0.000000 0.006418
vn 1.000000 0.000000 0.000000
vn 1.000000 0.000000 0.000000
vn 0.999979 0.000000 0.006418
vn 1.000000 0.000000 0.000000
vn 0.382690 0.000000 0.923877
vn 0.382690 0.000000 0.923877
vn 0.923877 0.000000 0.382689
vn 0.923877 0.000000 0.382689
vn 0.382690 0.000000 0.923877
vn 0.923877 0.000000 0.382689
s 1
g polySurface27
usemtl initialShadingGroup
f 10/22/1 5/23/2 1/24/3 2/25/4
s 2
f 7/16/5 8/17/6 3/18/7 4/19/8
s off
f 19/36/9 20/37/10 4/38/11 3/39/12
s 2
f 7/16/5 6/20/13 9/21/14 8/17/6
s 1
f 6/26/15 5/23/2 10/22/1 9/27/16
f 5/23/2 6/26/17 22/30/18 23/31/19
s off
f 6/5/20 7/1/21 21/4/22 22/6/23
f 7/1/24 4/2/25 20/3/26 21/4/27
s 1
f 1/24/3 5/23/2 13/28/28 16/29/29
f 13/28/28 5/23/2 23/31/19 24/32/30
s 4
f 18/7/31 15/8/32 11/9/33 12/10/34
f 15/8/32 26/13/35 27/14/36 11/9/33
s 1
f 24/32/30 25/35/37 14/33/38 13/28/28
s 4
f 25/15/39 26/13/35 15/8/32 14/11/40
s 1
f 13/28/28 14/33/38 17/34/41 16/29/29
s 4
f 14/11/40 15/8/32 18/7/31 17/12/42
