# This file uses centimeters as units for non-parametric coordinates.

mtllib corner_up_left.mtl
g default
v -369.389404 268.764404 10.000000
v 476.742554 268.764404 10.000000
v 476.742554 147.706665 -483.000000
v -355.684937 147.706665 -483.000000
v -369.389404 161.468872 10.000000
v -360.684937 153.009155 6.513947
v -355.684937 147.706665 -1.920090
v 476.742554 147.706665 -1.920090
v 476.742554 153.009155 6.513947
v 476.742554 161.468872 10.000000
v -476.742554 161.468872 -483.000000
v -476.742554 268.764404 -483.000000
v -466.008301 161.468872 10.000000
v -473.598511 161.468872 6.856018
v -476.742554 161.468872 -0.734238
v -466.008301 268.764404 10.000000
v -473.598511 268.764404 6.856018
v -476.742554 268.764404 -0.734238
v 476.742554 -268.764404 -483.000000
v -355.684937 -268.764404 -483.000000
v -355.684937 -268.764404 -1.920090
v -360.684937 -268.764404 6.513947
v -369.389404 -268.764404 10.000000
v -466.008301 -268.764404 10.000000
v -473.598511 -268.764404 6.856018
v -476.742554 -268.764404 -0.734238
v -476.742554 -268.764404 -483.000000
vt 0.661848 0.884622
vt 0.384268 0.884622
vt 0.384268 0.563981
vt 0.661848 0.563981
vt 0.665382 0.890243
vt 0.384268 0.890243
vt 0.992949 0.922246
vt 0.671517 0.922246
vt 0.671517 0.850733
vt 0.992949 0.850733
vt 0.671517 0.563981
vt 0.992949 0.563981
vt 0.998008 0.850733
vt 0.998008 0.922246
vt 0.998008 0.563981
vt 0.687283 0.556657
vt 0.366641 0.556657
vt 0.366641 0.001841
vt 0.687283 0.001841
vt 0.692904 0.001841
vt 0.692904 0.559989
vt 0.288744 0.001841
vt 0.360257 0.001841
vt 0.360257 0.565791
vt 0.288744 0.565791
vt 0.360257 0.630188
vt 0.288744 0.630188
vt 0.283106 0.559989
vt 0.283106 0.001841
vt 0.360257 0.635246
vt 0.288744 0.635246
vt 0.001992 0.630188
vt 0.001992 0.565791
vt 0.001992 0.559989
vt 0.001992 0.635246
vt 0.699912 0.001841
vt 0.977491 0.001841
vt 0.977491 0.556657
vt 0.699912 0.556657
vn 0.000000 -0.029959 0.999551
vn 0.000000 0.000000 1.000000
vn 0.000000 0.000000 1.000000
vn 0.005332 -0.010202 0.999934
vn 0.000000 -0.999902 0.014008
vn 0.000000 -1.000000 0.000000
vn 0.000000 -1.000000 0.000000
vn 0.000000 -0.999941 0.010863
vn 0.000000 0.000000 1.000000
vn 0.000000 0.000000 1.000000
vn 0.000000 0.000000 1.000000
vn 0.000000 0.000000 1.000000
vn 0.000000 -0.846587 0.532250
vn 0.000000 -0.846587 0.532250
vn 0.000000 -0.380997 0.924576
vn 0.000000 -0.380997 0.924576
vn 0.032782 0.000000 0.999462
vn 0.371783 0.000000 0.928320
vn 0.371783 0.000000 0.928320
vn 0.860200 0.000000 0.509957
vn 0.860200 0.000000 0.509957
vn 0.860200 0.000000 0.509957
vn 0.860200 0.000000 0.509957
vn 1.000000 0.000000 0.000000
vn 1.000000 0.000000 0.000000
vn 1.000000 0.000000 0.000000
vn 1.000000 0.000000 0.000000
vn -0.030156 0.000000 0.999545
vn -0.030156 0.000000 0.999545
vn -0.030156 0.000000 0.999545
vn -0.999979 0.000000 0.006418
vn -1.000000 0.000000 0.000000
vn -1.000000 0.000000 0.000000
vn -0.999979 0.000000 0.006418
vn -1.000000 0.000000 0.000000
vn -0.999979 0.000000 0.006418
vn -0.382685 0.000000 0.923879
vn -0.382685 0.000000 0.923879
vn -0.923877 0.000000 0.382689
vn -0.923877 0.000000 0.382689
vn -0.382685 0.000000 0.923879
vn -0.923877 0.000000 0.382689
s 1
g polySurface28
usemtl initialShadingGroup
f 10/22/1 2/23/2 1/24/3 5/25/4
s 2
f 7/16/5 4/17/6 3/18/7 8/19/8
s off
f 19/36/9 3/37/10 4/38/11 20/39/12
s 2
f 7/16/5 8/19/8 9/20/13 6/21/14
s 1
f 6/28/15 9/29/16 10/22/1 5/25/4
f 5/25/4 23/33/17 22/34/18 6/28/19
s off
f 6/5/20 22/6/21 21/2/22 7/1/23
f 7/1/24 21/2/25 20/3/26 4/4/27
s 1
f 1/24/3 16/26/28 13/27/29 5/25/4
f 13/27/29 24/32/30 23/33/17 5/25/4
s 4
f 18/7/31 12/8/32 11/9/33 15/10/34
f 15/10/34 11/9/33 27/11/35 26/12/36
s 1
f 24/32/30 13/27/29 14/31/37 25/35/38
s 4
f 25/15/39 14/13/40 15/10/34 26/12/36
s 1
f 13/27/29 16/26/28 17/30/41 14/31/37
s 4
f 14/13/40 17/14/42 18/7/31 15/10/34
