# This file uses centimeters as units for non-parametric coordinates.

mtllib wall_right.mtl
g default
v -476.742676 -268.264526 -483.000000
v 355.684814 -268.264526 -483.000000
v 355.684814 268.264404 -483.000000
v -476.742676 268.264526 -483.000000
v 360.684814 -268.264526 6.513947
v 369.389160 -268.264526 10.000000
v 369.389160 268.264404 10.000000
v 360.684814 268.264404 6.513947
v 355.684814 -268.264526 -1.920090
v 355.684814 268.264404 -1.920090
v 466.008301 -268.264526 10.000000
v 466.008301 268.264404 10.000000
v 476.742432 -268.264526 -0.734238
v 476.742432 -268.264526 -483.000000
v 476.742432 268.264526 -483.000000
v 476.742432 268.264404 -0.734238
v 473.598389 -268.264526 6.856018
v 473.598389 268.264404 6.856018
vt 0.565434 0.001818
vt 0.971240 0.001818
vt 0.971240 0.454397
vt 0.565434 0.454397
vt 0.978354 0.001818
vt 0.978354 0.454397
vt 0.591202 0.458388
vt 0.998008 0.458388
vt 0.998008 0.910967
vt 0.591202 0.910967
vt 0.584799 0.458388
vt 0.584799 0.910967
vt 0.001992 0.703996
vt 0.001992 0.001818
vt 0.454571 0.001818
vt 0.454571 0.703996
vt 0.462140 0.001818
vt 0.469482 0.001818
vt 0.469482 0.454397
vt 0.462140 0.454397
vt 0.550983 0.001818
vt 0.550983 0.454397
vt 0.557386 0.001818
vt 0.557386 0.454397
vn 0.000000 0.000000 1.000000
vn 0.000000 0.000000 1.000000
vn 0.000000 0.000000 1.000000
vn 0.000000 0.000000 1.000000
vn -0.371787 0.000000 0.928318
vn -0.033080 0.000000 0.999453
vn -0.033080 0.000000 0.999453
vn -0.371787 0.000000 0.928318
vn -0.860200 0.000000 0.509957
vn -0.860200 0.000000 0.509957
vn -0.860200 0.000000 0.509957
vn -0.860200 0.000000 0.509957
vn -1.000000 0.000000 0.000000
vn -1.000000 0.000000 0.000000
vn -1.000000 0.000000 0.000000
vn -1.000000 0.000000 0.000000
vn 0.030156 0.000000 0.999545
vn 0.030156 0.000000 0.999545
vn 0.999979 0.000000 0.006418
vn 1.000000 0.000000 0.000000
vn 1.000000 0.000000 0.000000
vn 0.999979 0.000000 0.006418
vn 0.382690 0.000000 0.923877
vn 0.382690 0.000000 0.923877
vn 0.923877 0.000000 0.382689
vn 0.923877 0.000000 0.382689
s off
g polySurface29
usemtl initialShadingGroup
f 1/13/1 2/14/2 3/15/3 4/16/4
s 1
f 5/17/5 6/18/6 7/19/7 8/20/8
s off
f 9/2/9 5/5/10 8/6/11 10/3/12
f 2/1/13 9/2/14 10/3/15 3/4/16
s 1
f 6/18/6 11/21/17 12/22/18 7/19/7
s 2
f 13/7/19 14/8/20 15/9/21 16/10/22
s 1
f 11/21/17 17/23/23 18/24/24 12/22/18
s 2
f 17/11/25 13/7/19 16/10/22 18/12/26
