# This file uses centimeters as units for non-parametric coordinates.

mtllib wall_L.mtl
g default
v 476.742554 -268.264526 -483.000000
v -355.684937 -268.264526 -483.000000
v -355.684937 268.264404 -483.000000
v 476.742554 268.264526 -483.000000
v -360.684937 -268.264526 6.513947
v -369.389404 -268.264526 10.000000
v -369.389404 268.264404 10.000000
v -360.684937 268.264404 6.513947
v -355.684937 -268.264526 -1.920090
v -355.684937 268.264404 -1.920090
v -466.008301 -268.264526 10.000000
v -466.008301 268.264404 10.000000
v -476.742554 -268.264526 -0.734238
v -476.742554 -268.264526 -483.000000
v -476.742554 268.264526 -483.000000
v -476.742554 268.264404 -0.734238
v -473.598511 -268.264526 6.856018
v -473.598511 268.264404 6.856018
vt 0.978354 0.001818
vt 0.978354 0.454397
vt 0.572549 0.454397
vt 0.572549 0.001818
vt 0.565434 0.454397
vt 0.565434 0.001818
vt 0.991605 0.458388
vt 0.991605 0.910967
vt 0.584799 0.910967
vt 0.584799 0.458388
vt 0.998008 0.458388
vt 0.998008 0.910967
vt 0.001992 0.001818
vt 0.454571 0.001818
vt 0.454571 0.703996
vt 0.001992 0.703996
vt 0.557386 0.001818
vt 0.557386 0.454397
vt 0.550043 0.454397
vt 0.550043 0.001818
vt 0.468542 0.454397
vt 0.468542 0.001818
vt 0.462140 0.454397
vt 0.462140 0.001818
vn 0.000000 0.000000 1.000000
vn 0.000000 0.000000 1.000000
vn 0.000000 0.000000 1.000000
vn 0.000000 0.000000 1.000000
vn 0.371783 0.000000 0.928320
vn 0.371783 0.000000 0.928320
vn 0.033080 0.000000 0.999453
vn 0.033080 0.000000 0.999453
vn 0.860200 0.000000 0.509957
vn 0.860200 0.000000 0.509957
vn 0.860200 0.000000 0.509957
vn 0.860200 0.000000 0.509957
vn 1.000000 0.000000 0.000000
vn 1.000000 0.000000 0.000000
vn 1.000000 0.000000 0.000000
vn 1.000000 0.000000 0.000000
vn -0.030156 0.000000 0.999545
vn -0.030156 0.000000 0.999545
vn -0.999979 0.000000 0.006418
vn -0.999979 0.000000 0.006418
vn -1.000000 0.000000 0.000000
vn -1.000000 0.000000 0.000000
vn -0.382685 0.000000 0.923879
vn -0.382685 0.000000 0.923879
vn -0.923877 0.000000 0.382689
vn -0.923877 0.000000 0.382689
s off
g polySurface24
usemtl initialShadingGroup
f 1/13/1 4/14/2 3/15/3 2/16/4
s 1
f 5/17/5 8/18/6 7/19/7 6/20/8
s off
f 9/4/9 10/3/10 8/5/11 5/6/12
f 2/1/13 3/2/14 10/3/15 9/4/16
s 1
f 6/20/8 7/19/7 12/21/17 11/22/18
s 2
f 13/7/19 16/8/20 15/9/21 14/10/22
s 1
f 11/22/18 12/21/17 18/23/23 17/24/24
s 2
f 17/11/25 18/12/26 16/8/20 13/7/19
